<?xml version="1.0" encoding="UTF-8"?>
<svg version="1.1" xmlns="http://www.w3.org/2000/svg" width="256" height="256">
<path d="M0 0 C5.37904493 0.41529391 8.10594792 1.32856519 12 5.0625 C12.84691406 5.87203125 13.69382812 6.6815625 14.56640625 7.515625 C27 20.20866774 27 20.20866774 27 24 C27.94359375 23.95359375 28.8871875 23.9071875 29.859375 23.859375 C41.83533821 23.52270134 51.39310459 25.2406361 60.96484375 33.0234375 C63.04187286 34.29453312 63.04187286 34.29453312 65.59375 33.28125 C68.10043744 32.01957651 68.10043744 32.01957651 70.5625 30.125 C79.98324819 23.76479944 90.07596396 23.46275233 101 24 C101.26554688 23.42765625 101.53109375 22.8553125 101.8046875 22.265625 C106.13206092 14.06341394 114.33326056 3.74777922 123 0 C124.6662014 -0.03937847 126.33391973 -0.04420777 128 0 C128.05603298 2.31291701 128.09691581 4.62416478 128.125 6.9375 C128.14252319 8.00883179 128.14252319 8.00883179 128.16040039 9.10180664 C128.17359164 13.00939522 127.95677341 16.68594004 127.23828125 20.53125 C125.47992809 28.35183744 125.47992809 28.35183744 127.66015625 35.71875 C129.9735854 37.97466556 129.9735854 37.97466556 132.5390625 39.96875 C138.91867738 45.23446387 142.78969532 53.91796545 144 62 C144.95042136 73.60080711 145.20314659 85.76986561 138.7578125 95.96484375 C137.64002936 98.96672527 138.6066682 100.62194459 139.75 103.5625 C146.67276617 121.52756572 147.55684581 147.15438745 140 165 C136.92961623 171.56819914 133.56993351 177.37501204 129 183 C129.65066437 183.00364563 130.30132874 183.00729126 130.97171021 183.01104736 C137.75298591 183.05290572 144.53358692 183.12227536 151.31445312 183.20751953 C153.84400683 183.23571932 156.37364849 183.25693873 158.90332031 183.27099609 C162.54277546 183.29243829 166.18117415 183.3390986 169.8203125 183.390625 C170.94865509 183.39185364 172.07699768 183.39308228 173.23953247 183.39434814 C179.46322572 183.51005368 183.27779946 183.81000083 188 188 C191.62833663 191.81930172 192.31000458 194.88279006 192.5 200 C192.31000458 205.11720994 191.62833663 208.18069828 188 212 C183.23756758 215.87054146 179.48293602 216.56507535 173.51611328 216.45410156 C172.68618362 216.45468567 171.85625397 216.45526978 171.00117493 216.45587158 C168.2737867 216.45309772 165.54750842 216.42203951 162.8203125 216.390625 C160.92317298 216.38316011 159.02602573 216.37746835 157.12887573 216.37347412 C152.14744597 216.35823731 147.16648634 216.31897231 142.1852417 216.2746582 C137.09751748 216.23366336 132.00971695 216.21545411 126.921875 216.1953125 C116.94771067 216.15247618 106.9738945 216.08424849 97 216 C97.28653762 217.44276767 97.58246511 218.88367253 97.88232422 220.32373047 C98.04610565 221.12632294 98.20988708 221.92891541 98.37863159 222.75582886 C99.25965395 225.93778167 100.84114655 227.77748513 103.125 230.125 C103.92550781 230.95902344 104.72601563 231.79304687 105.55078125 232.65234375 C107.74426385 234.75486854 109.985325 236.73581665 112.3125 238.6875 C116.00925932 241.838231 118.07620284 244.51113996 120 249 C120.25 252.9375 120.25 252.9375 120 256 C115.77942545 255.11145799 111.62751889 254.18267772 107.484375 252.9765625 C94.54627655 248.96761844 94.54627655 248.96761844 81.5859375 251.09375 C79.45301088 252.38418456 79.45301088 252.38418456 77.62109375 253.80859375 C73.65933076 256.72025089 69.00647703 256.25558031 64.3125 256.3125 C63.53455078 256.34150391 62.75660156 256.37050781 61.95507812 256.40039062 C54.67771648 256.47929446 49.94872045 253.96581364 44 250 C34.55134207 248.67224742 25.95566953 251.39290509 17 254 C14.00808893 254.72027489 11.01160097 255.36597874 8 256 C7.26770771 250.2637104 8.54829591 247.13564257 11.8828125 242.4609375 C14.85896029 239.00157752 18.1877835 235.99682747 21.68457031 233.06933594 C27.36772485 228.19438696 29.94653021 223.42911599 31 216 C29.42265579 216.01332367 29.42265579 216.01332367 27.81344604 216.0269165 C17.89669435 216.10805247 7.98001012 216.16798951 -1.93699837 216.20724869 C-7.03528823 216.22811092 -12.13330983 216.25640383 -17.23144531 216.30175781 C-22.15274563 216.34526396 -27.07378815 216.36914737 -31.99526596 216.37950897 C-33.87154066 216.38689176 -35.74780146 216.40130873 -37.62396622 216.42292023 C-40.25499049 216.45201777 -42.88495363 216.45595338 -45.51611328 216.45410156 C-46.2893544 216.46848267 -47.06259552 216.48286377 -47.85926819 216.49768066 C-53.07348468 216.45804953 -55.97466948 215.27148131 -60 212 C-63.62833663 208.18069828 -64.31000458 205.11720994 -64.5 200 C-64.31000458 194.88279006 -63.62833663 191.81930172 -60 188 C-54.42677813 183.05489129 -49.04161067 183.39848818 -41.8203125 183.390625 C-40.6524118 183.37408875 -39.48451111 183.35755249 -38.28121948 183.34051514 C-34.56242606 183.29205147 -30.84404157 183.27066668 -27.125 183.25 C-24.59893778 183.22183913 -22.07289459 183.19191155 -19.546875 183.16015625 C-13.36465752 183.08629265 -7.18255498 183.03464045 -1 183 C-1.4734082 182.3404834 -1.94681641 181.6809668 -2.43457031 181.00146484 C-3.05944336 180.12184082 -3.68431641 179.2422168 -4.328125 178.3359375 C-4.9459082 177.4701709 -5.56369141 176.6044043 -6.20019531 175.71240234 C-14.27078765 163.54958617 -16.55403502 150.23459762 -16.4375 135.875 C-16.43282715 134.60906006 -16.4281543 133.34312012 -16.42333984 132.03881836 C-16.24738691 120.81287804 -14.80516152 110.28636295 -10.7578125 99.7734375 C-9.77023229 97.11004378 -9.77023229 97.11004378 -10.609375 94.91015625 C-10.98578125 94.30042969 -11.3621875 93.69070312 -11.75 93.0625 C-17.79702108 83.03381363 -17.37163719 69.61381844 -15.34765625 58.37890625 C-12.74098516 49.7757729 -8.14889018 42.33184699 -0.9375 36.9375 C0.94450603 35.33805201 0.94450603 35.33805201 2 33 C1.99089428 28.74763007 1.40057878 24.7830942 0.69140625 20.6015625 C-0.07376209 16.02227919 -0.191528 11.57193505 -0.125 6.9375 C-0.11670166 6.24084229 -0.10840332 5.54418457 -0.09985352 4.82641602 C-0.07515054 3.21745603 -0.038972 1.60867761 0 0 Z " fill="#735538" transform="translate(64,0)"/>
<path d="M0 0 C5.37904493 0.41529391 8.10594792 1.32856519 12 5.0625 C12.84691406 5.87203125 13.69382812 6.6815625 14.56640625 7.515625 C27 20.20866774 27 20.20866774 27 24 C27.94359375 23.95359375 28.8871875 23.9071875 29.859375 23.859375 C41.83533821 23.52270134 51.39310459 25.2406361 60.96484375 33.0234375 C63.04187286 34.29453312 63.04187286 34.29453312 65.59375 33.28125 C68.10043744 32.01957651 68.10043744 32.01957651 70.5625 30.125 C79.98324819 23.76479944 90.07596396 23.46275233 101 24 C101.26554687 23.42765625 101.53109375 22.8553125 101.8046875 22.265625 C106.13206092 14.06341394 114.33326056 3.74777922 123 0 C124.6662014 -0.03937847 126.33391973 -0.04420777 128 0 C128.05603298 2.31291701 128.09691581 4.62416478 128.125 6.9375 C128.14252319 8.00883179 128.14252319 8.00883179 128.16040039 9.10180664 C128.17359164 13.00939522 127.95677341 16.68594004 127.23828125 20.53125 C125.47992809 28.35183744 125.47992809 28.35183744 127.66015625 35.71875 C129.9735854 37.97466556 129.9735854 37.97466556 132.5390625 39.96875 C138.91867738 45.23446387 142.78969532 53.91796545 144 62 C145.11559069 75.61685762 144.81983807 88.09884142 136.1875 99.3125 C134.80888871 100.89021603 133.41405273 102.45396901 132 104 C131.21689453 104.95519531 131.21689453 104.95519531 130.41796875 105.9296875 C123.30475764 114.03334572 111.0208735 119.4098174 100.421875 120.30078125 C88.86279317 120.33767194 80.16574805 118.3601217 70 113 C69.34 113 68.68 113 68 113 C67.01 114.98 66.02 116.96 65 119 C64.34 119 63.68 119 63 119 C62.01 117.02 61.02 115.04 60 113 C56.12577536 114.25650529 52.31238467 115.63220562 48.5 117.0625 C35.88374176 121.61790063 23.54373496 121.06144901 11.21875 115.81640625 C-0.35028742 110.08063349 -10.24895575 99.86017864 -14.875 87.6875 C-18.31807435 74.51310174 -17.30305055 59.07031665 -10.421875 47.30078125 C-7.6191846 43.07780855 -4.98640713 39.96621006 -0.9375 36.9375 C0.94450603 35.33805201 0.94450603 35.33805201 2 33 C1.99089428 28.74763007 1.40057878 24.7830942 0.69140625 20.6015625 C-0.07376209 16.02227919 -0.191528 11.57193505 -0.125 6.9375 C-0.11670166 6.24084229 -0.10840332 5.54418457 -0.09985352 4.82641602 C-0.07515054 3.21745603 -0.038972 1.60867761 0 0 Z " fill="#A67A51" transform="translate(64,0)"/>
<path d="M0 0 C0.76165466 -0.00058411 1.52330933 -0.00116821 2.30804443 -0.00177002 C4.80821414 0.00100133 7.30716929 0.0320465 9.80712891 0.06347656 C11.54732614 0.07094237 13.28753181 0.0766337 15.02774048 0.08062744 C19.59490408 0.09585709 24.16155411 0.13511556 28.72851562 0.17944336 C33.39397231 0.2204539 38.05951245 0.23865078 42.72509766 0.25878906 C51.86985382 0.30161267 61.01422981 0.36983138 70.15869141 0.45410156 C70.20767578 1.70707031 70.25666016 2.96003906 70.30712891 4.25097656 C70.38217723 5.90203977 70.45772417 7.55308038 70.53369141 9.20410156 C70.56462891 10.02910156 70.59556641 10.85410156 70.62744141 11.70410156 C70.66611328 12.50332031 70.70478516 13.30253906 70.74462891 14.12597656 C70.7760498 14.85913086 70.8074707 15.59228516 70.83984375 16.34765625 C71.20806705 18.78029838 71.79616648 20.40273524 73.15869141 22.45410156 C76.62690382 23.35326774 79.08523397 23.79308812 82.53369141 22.70410156 C84.46838841 21.45691334 84.46838841 21.45691334 85.15869141 18.45410156 C85.81869141 18.45410156 86.47869141 18.45410156 87.15869141 18.45410156 C87.43712891 19.41316406 87.43712891 19.41316406 87.72119141 20.39160156 C89.08536391 22.82567828 89.08536391 22.82567828 92.53369141 23.32910156 C96.72318801 23.48324319 96.72318801 23.48324319 100.15869141 21.45410156 C101.04508529 18.7949199 101.33858165 16.97345516 101.47509766 14.22363281 C101.51699219 13.42119141 101.55888672 12.61875 101.60205078 11.79199219 C101.64136719 10.95861328 101.68068359 10.12523437 101.72119141 9.26660156 C101.7859668 7.99913086 101.7859668 7.99913086 101.85205078 6.70605469 C101.95800658 4.62225723 102.05884161 2.53820053 102.15869141 0.45410156 C107.43869141 0.45410156 112.71869141 0.45410156 118.15869141 0.45410156 C118.20767578 1.70707031 118.25666016 2.96003906 118.30712891 4.25097656 C118.38217723 5.90203977 118.45772417 7.55308038 118.53369141 9.20410156 C118.58009766 10.44160156 118.58009766 10.44160156 118.62744141 11.70410156 C118.66611328 12.50332031 118.70478516 13.30253906 118.74462891 14.12597656 C118.7760498 14.85913086 118.8074707 15.59228516 118.83984375 16.34765625 C119.20806705 18.78029838 119.79616648 20.40273524 121.15869141 22.45410156 C124.62690382 23.35326774 127.08523397 23.79308812 130.53369141 22.70410156 C132.46838841 21.45691334 132.46838841 21.45691334 133.15869141 18.45410156 C133.81869141 18.45410156 134.47869141 18.45410156 135.15869141 18.45410156 C135.34431641 19.09347656 135.52994141 19.73285156 135.72119141 20.39160156 C137.08536391 22.82567828 137.08536391 22.82567828 140.53369141 23.32910156 C144.72318801 23.48324319 144.72318801 23.48324319 148.15869141 21.45410156 C149.04508529 18.7949199 149.33858165 16.97345516 149.47509766 14.22363281 C149.51699219 13.42119141 149.55888672 12.61875 149.60205078 11.79199219 C149.64136719 10.95861328 149.68068359 10.12523437 149.72119141 9.26660156 C149.7859668 7.99913086 149.7859668 7.99913086 149.85205078 6.70605469 C149.95800658 4.62225723 150.05884161 2.53820053 150.15869141 0.45410156 C160.22492464 0.36133685 170.29105582 0.2903037 180.35762978 0.24685287 C185.03219346 0.2259964 189.70646425 0.19771432 194.38085938 0.15234375 C198.89367926 0.1088166 203.40621778 0.08494986 207.91923141 0.07459259 C209.63920901 0.06721353 211.35917157 0.05280378 213.07902908 0.03118134 C215.49214962 0.00205527 217.9041142 -0.00185072 220.31738281 0 C221.37906174 -0.02157166 221.37906174 -0.02157166 222.46218872 -0.0435791 C227.48777694 -0.00199622 230.27022878 1.34159946 234.15869141 4.45410156 C237.78702804 8.27340328 238.46869599 11.33689162 238.65869141 16.45410156 C238.46869599 21.5713115 237.78702804 24.63479984 234.15869141 28.45410156 C229.39625898 32.32464302 225.64162743 33.01917691 219.67480469 32.90820312 C218.84487503 32.90878723 218.01494537 32.90937134 217.15986633 32.90997314 C214.43247811 32.90719928 211.70619983 32.87614107 208.97900391 32.84472656 C207.08186439 32.83726167 205.18471714 32.83156991 203.28756714 32.82757568 C198.30613738 32.81233887 193.32517775 32.77307387 188.34393311 32.72875977 C183.25620889 32.68776492 178.16840835 32.66955567 173.08056641 32.64941406 C163.10640207 32.60657775 153.13258591 32.53835006 143.15869141 32.45410156 C143.44522903 33.89686923 143.74115651 35.33777409 144.04101562 36.77783203 C144.28668777 37.98172073 144.28668777 37.98172073 144.537323 39.20993042 C145.41834536 42.39188323 146.99983795 44.23158669 149.28369141 46.57910156 C150.08419922 47.413125 150.88470703 48.24714844 151.70947266 49.10644531 C153.90295526 51.2089701 156.14401641 53.18991822 158.47119141 55.14160156 C162.16795073 58.29233256 164.23489424 60.96524152 166.15869141 65.45410156 C166.40869141 69.39160156 166.40869141 69.39160156 166.15869141 72.45410156 C161.93811685 71.56555955 157.7862103 70.63677928 153.64306641 69.43066406 C140.70496795 65.42172001 140.70496795 65.42172001 127.74462891 67.54785156 C125.61170229 68.83828613 125.61170229 68.83828613 123.77978516 70.26269531 C119.81802216 73.17435245 115.16516844 72.70968187 110.47119141 72.76660156 C109.30426758 72.81010742 109.30426758 72.81010742 108.11376953 72.85449219 C100.83640789 72.93339603 96.10741186 70.4199152 90.15869141 66.45410156 C80.71003348 65.12634898 72.11436094 67.84700665 63.15869141 70.45410156 C60.16678033 71.17437645 57.17029238 71.82008031 54.15869141 72.45410156 C53.42639912 66.71781196 54.70698732 63.58974413 58.04150391 58.91503906 C61.0176517 55.45567909 64.3464749 52.45092903 67.84326172 49.5234375 C73.52641625 44.64848852 76.10522161 39.88321755 77.15869141 32.45410156 C76.1071286 32.46298401 75.0555658 32.47186646 73.97213745 32.48101807 C64.05538575 32.56215403 54.13870152 32.62209107 44.22169304 32.66135025 C39.12340318 32.68221248 34.02538157 32.71050539 28.92724609 32.75585938 C24.00594577 32.79936552 19.08490326 32.82324894 14.16342545 32.83361053 C12.28715075 32.84099332 10.41088994 32.85541029 8.53472519 32.87702179 C5.90370092 32.90611933 3.27373777 32.91005494 0.64257812 32.90820312 C-0.51728355 32.92977478 -0.51728355 32.92977478 -1.70057678 32.95178223 C-6.91479327 32.91215109 -9.81597807 31.72558287 -13.84130859 28.45410156 C-17.46964523 24.63479984 -18.15131318 21.5713115 -18.34130859 16.45410156 C-18.15131318 11.33689162 -17.46964523 8.27340328 -13.84130859 4.45410156 C-9.24594321 0.77576239 -5.75026516 -0.11683639 0 0 Z " fill="#4D4D4D" transform="translate(17.84130859375,183.5458984375)"/>
<path d="M0 0 C6.39544726 4.61714869 11.48639201 10.35224112 13.39453125 18.12109375 C13.43578125 18.92546875 13.47703125 19.72984375 13.51953125 20.55859375 C14.17953125 20.55859375 14.83953125 20.55859375 15.51953125 20.55859375 C15.62394531 19.67042969 15.72835937 18.78226563 15.8359375 17.8671875 C17.37247803 10.43033131 22.56372215 4.9132313 28.58203125 0.55859375 C36.72340079 -4.63672465 43.86272357 -5.44862612 53.359375 -4.01171875 C62.36392404 -1.96580438 68.68408343 2.56829651 73.95703125 10.12109375 C78.69068816 17.92310444 79.65126587 25.18664254 78.0546875 34.17578125 C75.64440592 43.33199887 71.11172973 50.41655118 62.93359375 55.33984375 C54.95302629 59.3688681 45.74400766 61.52726536 37 58.76171875 C32.9852681 57.0306569 29.19429504 54.9294091 25.51953125 52.55859375 C25.27460938 53.37585938 25.0296875 54.193125 24.77734375 55.03515625 C23.29405513 59.19020699 21.40152176 63.01180664 19.39453125 66.93359375 C19.02199219 67.66964844 18.64945312 68.40570313 18.265625 69.1640625 C17.35391905 70.96409733 16.43723193 72.76160777 15.51953125 74.55859375 C14.85953125 74.55859375 14.19953125 74.55859375 13.51953125 74.55859375 C11.84639802 71.27017499 10.18213518 67.97734693 8.51953125 64.68359375 C8.04257813 63.74644531 7.565625 62.80929688 7.07421875 61.84375 C6.62304688 60.94785156 6.171875 60.05195312 5.70703125 59.12890625 C5.28808594 58.30148926 4.86914062 57.47407227 4.4375 56.62158203 C3.51953125 54.55859375 3.51953125 54.55859375 3.51953125 52.55859375 C2.95105469 52.89632812 2.38257813 53.2340625 1.796875 53.58203125 C-6.85503058 58.57962612 -14.44114412 60.60708718 -24.48046875 59.55859375 C-27.78248027 58.64769402 -30.54710565 57.31312869 -33.48046875 55.55859375 C-34.53041016 54.93984375 -34.53041016 54.93984375 -35.6015625 54.30859375 C-42.29098385 49.85740979 -46.58170623 43.31083227 -48.85546875 35.62109375 C-50.79902971 25.57936213 -49.43432042 18.09626947 -44.1953125 9.43359375 C-34.21358458 -5.24705344 -15.29991571 -8.89081716 0 0 Z " fill="#E4E4E4" transform="translate(113.48046875,44.44140625)"/>
<path d="M0 0 C21.78 0 43.56 0 66 0 C66.99 4.455 66.99 4.455 68 9 C69.78625671 11.86092954 69.78625671 11.86092954 72.125 14.125 C73.32576172 15.37603516 73.32576172 15.37603516 74.55078125 16.65234375 C76.74426385 18.75486854 78.985325 20.73581665 81.3125 22.6875 C85.00925932 25.838231 87.07620284 28.51113996 89 33 C89.25 36.9375 89.25 36.9375 89 40 C84.77942545 39.11145799 80.62751889 38.18267772 76.484375 36.9765625 C63.54627655 32.96761844 63.54627655 32.96761844 50.5859375 35.09375 C48.45301088 36.38418456 48.45301088 36.38418456 46.62109375 37.80859375 C42.65933076 40.72025089 38.00647703 40.25558031 33.3125 40.3125 C32.14557617 40.35600586 32.14557617 40.35600586 30.95507812 40.40039062 C23.67771648 40.47929446 18.94872045 37.96581364 13 34 C3.55134207 32.67224742 -5.04433047 35.39290509 -14 38 C-16.99191107 38.72027489 -19.98839903 39.36597874 -23 40 C-23.73229229 34.2637104 -22.45170409 31.13564257 -19.1171875 26.4609375 C-16.14103971 23.00157752 -12.8122165 19.99682747 -9.31542969 17.06933594 C-3.46705079 12.05265928 -1.27987394 7.67924364 0 0 Z " fill="#725437" transform="translate(95,216)"/>
<path d="M0 0 C3.8125 1.0625 3.8125 1.0625 5.3125 3.125 C5.4775 3.764375 5.6425 4.40375 5.8125 5.0625 C6.4725 5.0625 7.1325 5.0625 7.8125 5.0625 C7.998125 4.423125 8.18375 3.78375 8.375 3.125 C9.8125 1.0625 9.8125 1.0625 13.125 0.125 C17.16474472 0.05652975 18.69166901 0.58419304 21.8125 3.0625 C23.67880915 6.7951183 23.04048906 11.26720785 23.0625 15.375 C23.083125 16.32568359 23.10375 17.27636719 23.125 18.25585938 C23.17600905 27.38010296 23.17600905 27.38010296 19.8125 31.0625 C17.18340175 32.18540028 14.65178194 32.26816227 11.8125 32.0625 C9.3125 30.8125 9.3125 30.8125 7.8125 29.0625 C7.8125 28.0725 7.8125 27.0825 7.8125 26.0625 C7.1525 26.0625 6.4925 26.0625 5.8125 26.0625 C5.68875 26.990625 5.68875 26.990625 5.5625 27.9375 C4.8125 30.0625 4.8125 30.0625 3.1875 31.375 C-0.30172742 32.38503952 -2.70236705 32.0129908 -6.1875 31.0625 C-10.18307194 26.54778182 -9.70318406 21.26365435 -9.6875 15.5625 C-9.71585938 14.62535156 -9.74421875 13.68820313 -9.7734375 12.72265625 C-9.78662338 8.07463482 -9.69533391 5.76787343 -6.91796875 1.91015625 C-4.14588403 0.03433927 -3.22580635 -0.55531289 0 0 Z " fill="#BD8C5D" transform="translate(145.1875,175.9375)"/>
<path d="M0 0 C3.8125 1.0625 3.8125 1.0625 5.3125 3.125 C5.4775 3.764375 5.6425 4.40375 5.8125 5.0625 C6.4725 5.0625 7.1325 5.0625 7.8125 5.0625 C7.998125 4.423125 8.18375 3.78375 8.375 3.125 C9.8125 1.0625 9.8125 1.0625 13.125 0.125 C17.16474472 0.05652975 18.69166901 0.58419304 21.8125 3.0625 C23.67880915 6.7951183 23.04048906 11.26720785 23.0625 15.375 C23.083125 16.32568359 23.10375 17.27636719 23.125 18.25585938 C23.17600905 27.38010296 23.17600905 27.38010296 19.8125 31.0625 C17.18340175 32.18540028 14.65178194 32.26816227 11.8125 32.0625 C9.3125 30.8125 9.3125 30.8125 7.8125 29.0625 C7.8125 28.0725 7.8125 27.0825 7.8125 26.0625 C7.1525 26.0625 6.4925 26.0625 5.8125 26.0625 C5.68875 26.990625 5.68875 26.990625 5.5625 27.9375 C4.8125 30.0625 4.8125 30.0625 3.1875 31.375 C-0.30172742 32.38503952 -2.70236705 32.0129908 -6.1875 31.0625 C-10.18307194 26.54778182 -9.70318406 21.26365435 -9.6875 15.5625 C-9.71585937 14.62535156 -9.74421875 13.68820313 -9.7734375 12.72265625 C-9.78662338 8.07463482 -9.69533391 5.76787343 -6.91796875 1.91015625 C-4.14588403 0.03433927 -3.22580635 -0.55531289 0 0 Z " fill="#BD8C5D" transform="translate(97.1875,175.9375)"/>
<path d="M0 0 C5.67476113 1.96434039 9.31400331 5.62800662 12 11 C12.59057744 16.67862925 12.29370905 21.16922672 9 26 C4.99653611 30.03627917 1.41408246 32.12458106 -4.3125 32.3125 C-8.94226662 32.25237316 -11.4369151 31.06591027 -15 28 C-19.3022759 23.23261319 -20.36282503 19.56252705 -20.28125 13.28125 C-19.69180611 8.50020514 -16.85179203 5.75038822 -13.375 2.6875 C-8.92314854 -0.47565762 -5.3540278 -0.48837416 0 0 Z " fill="#505050" transform="translate(164,56)"/>
<path d="M0 0 C5.67476113 1.96434039 9.31400331 5.62800662 12 11 C12.59057744 16.67862925 12.29370905 21.16922672 9 26 C4.99653611 30.03627917 1.41408246 32.12458106 -4.3125 32.3125 C-8.94226662 32.25237316 -11.4369151 31.06591027 -15 28 C-19.3022759 23.23261319 -20.36282503 19.56252705 -20.28125 13.28125 C-19.69180611 8.50020514 -16.85179203 5.75038822 -13.375 2.6875 C-8.92314854 -0.47565762 -5.3540278 -0.48837416 0 0 Z " fill="#505050" transform="translate(100,56)"/>
</svg>
